<?xml version="1.0" encoding="UTF-8"?>
<svg id="Layer_1" data-name="Layer 1" xmlns="http://www.w3.org/2000/svg" viewBox="0 0 81.84 81.51">
  <defs>
    <style>
      .cls-1 {
        fill: #010101;
      }
    </style>
  </defs>
  <path class="cls-1" d="M81.84,81.51c-16.44-.39-32.52,.46-48.27-1.43C6.82,76.87-8.11,45.85,4.6,22.02,12.72,6.8,30-2.05,46.78,.41c17.34,2.54,31.22,15.66,34.7,32.8,.13,.65,.34,1.31,.34,1.96,.02,15.11,.02,30.23,.02,46.33h0Zm-17.4-15.91c0-10.59,.86-20.28-.22-29.76-1.31-11.54-12.27-19.89-23.6-19.6-11.93,.3-21.72,9.35-23.18,21.43-1.47,12.17,5.62,24.09,17.28,26.18,9.67,1.73,19.74,1.25,29.71,1.75h.01Z"/>
</svg>