<?xml version="1.0" encoding="UTF-8"?>
<svg id="Layer_1" data-name="Layer 1" xmlns="http://www.w3.org/2000/svg" viewBox="0 0 618.72 804.12">
  <path d="M617.52,246c0-.12-.12-.36-.12-.48-.72-1.92-1.92-3.6-3.24-5.16-.12-.12-.12-.24-.24-.36L395.52,5.76c-3.36-3.6-8.16-5.76-13.2-5.76H54.96C24.72,0,0,24.6,0,54.96V749.16c0,30.24,24.6,54.96,54.96,54.96h508.8c30.24,0,54.96-24.6,54.96-54.96V252.36c0-2.28-.48-4.32-1.2-6.36h0ZM399.72,63.12l159.6,171.12h-140.64c-10.44,0-18.96-8.52-18.96-18.96V63.12Zm183,686.04c0,10.44-8.52,18.96-18.96,18.96H54.96c-10.44,0-18.96-8.52-18.96-18.96V55.08c0-10.44,8.52-18.96,18.96-18.96H363.72V215.4c0,30.24,24.6,54.96,54.96,54.96h164.04v478.8Z"/>
  <path d="M159.84,389.76c0,9.96,8.04,18,18,18H440.76c9.96,0,18-8.04,18-18s-8.04-18-18-18H177.84c-9.84,0-18,8.04-18,18Z"/>
  <path d="M440.88,456.72H177.84c-9.96,0-18,8.04-18,18s8.04,18,18,18H440.76c9.96,0,18-8.04,18-18,0-9.96-8.04-18-17.88-18h0Z"/>
  <path d="M440.88,541.68H177.84c-9.96,0-18,8.04-18,18s8.04,18,18,18H440.76c9.96,0,18-8.04,18-18,0-9.96-8.04-18-17.88-18h0Z"/>
  <path d="M309.36,626.64H177.84c-9.96,0-18,8.04-18,18s8.04,18,18,18h131.52c9.96,0,18-8.04,18-18s-8.16-18-18-18Z"/>
</svg>